<?xml version="1.0" encoding="utf-8"?>
<!-- Generator: Adobe Illustrator 24.2.0, SVG Export Plug-In . SVG Version: 6.00 Build 0)  -->
<svg version="1.1" id="Layer_1" xmlns="http://www.w3.org/2000/svg" xmlns:xlink="http://www.w3.org/1999/xlink" x="0px" y="0px"
	 viewBox="0 0 1610.93 1610.53" style="enable-background:new 0 0 1610.93 1610.53;" xml:space="preserve">
<style type="text/css">
	.st0{fill:#FFFFFF;}
	.st1{fill:#FF6600;}
	.st2{font-family:'Montserrat-Bold';}
	.st3{font-size:132.1689px;}
	.st4{letter-spacing:-6;}
</style>
<path class="st0" d="M1159.02,516.02c41.11,268.86-203.8,462.41-416.44,412.07c0-38.91,0-78.41,0-120.58
	c81.9,13.95,154.44,0.11,216.48-52.47c34.17-28.96,59.28-64.24,72.3-114.11c-16.57-1.28-29.25-3.07-41.93-3.1
	c-47.86-0.12-95.72,0.7-143.57,0.35c-14.3-0.1-28.58-2.86-44.41-4.57c0-40.58,0-78.02,0-117.61
	C921.88,516.02,1039.86,516.02,1159.02,516.02z"/>
<path class="st0" d="M683.64,486.74v421.03c-305.4-122.71-227.35-421.03-227.35-421.03H683.64z"/>
<path class="st0" d="M1085.63,358.82c-9.93,2.03-18.99,5.28-28.12,5.51c-39.23,0.97-78.49,1.21-117.74,1.33
	c-7.26,0.02-15.4,0.12-21.67-2.88c-54.93-26.28-112.94-29.84-175.44-21.64c0-41.66,0-80.08,0-118.32
	C842.16,180.78,1034.53,255.88,1085.63,358.82z"/>
<g>
	<path class="st1" d="M684.23,239.78V430c-69.06,7.37-136.86,3.17-207.83,2.87C537.64,283.19,684.23,239.78,684.23,239.78z"/>
</g>
<text transform="matrix(1 0 0 1 398.3274 1164.1696)"><tspan x="0" y="0" class="st1 st2 st3">I</tspan><tspan x="42.16" y="0" class="st0 st2 st3">NFLUENCE </tspan><tspan x="0" y="140" class="st0 st2 st3 st4">GRAPHIQUE</tspan></text>
</svg>
