<?xml version="1.0" encoding="utf-8"?>
<!-- Generator: Adobe Illustrator 24.2.0, SVG Export Plug-In . SVG Version: 6.00 Build 0)  -->
<svg version="1.1" id="Layer_1" xmlns="http://www.w3.org/2000/svg" xmlns:xlink="http://www.w3.org/1999/xlink" x="0px" y="0px"
	 viewBox="0 0 3070.6 1610.53" style="enable-background:new 0 0 3070.6 1610.53;" xml:space="preserve">
<style type="text/css">
	.st0{fill:#1C4583;}
	.st1{fill:#F16622;}
	.st2{font-family:'Montserrat-Bold';}
	.st3{font-size:290.4402px;}
	.st4{letter-spacing:-15;}
</style>
<g>
	<path class="st0" d="M897.39,735.14c33.32,217.9-165.16,374.76-337.5,333.96c0-31.53,0-63.54,0-97.72
		c66.37,11.31,125.17,0.09,175.44-42.52c27.69-23.47,48.04-52.06,58.6-92.48c-13.43-1.04-23.7-2.48-33.98-2.51
		c-38.79-0.1-77.57,0.57-116.36,0.28c-11.59-0.08-23.16-2.32-35.99-3.7c0-32.89,0-63.23,0-95.32
		C705.2,735.14,800.81,735.14,897.39,735.14z"/>
	<path class="st0" d="M512.11,711.41v341.22c-247.51-99.45-184.26-341.22-184.26-341.22H512.11z"/>
	<path class="st0" d="M837.9,607.73c-8.05,1.65-15.39,4.28-22.79,4.47c-31.8,0.79-63.61,0.98-95.42,1.08
		c-5.89,0.02-12.48,0.1-17.56-2.34c-44.51-21.3-91.53-24.19-142.19-17.54c0-33.77,0-64.9,0-95.89
		C640.59,463.45,796.5,524.31,837.9,607.73z"/>
	<path class="st1" d="M512.59,511.26v154.16c-55.97,5.97-110.91,2.57-168.43,2.33C393.79,546.44,512.59,511.26,512.59,511.26z"/>
</g>
<text transform="matrix(1 0 0 1 1052.6206 706.3881)"><tspan x="0" y="0" class="st1 st2 st3">I</tspan><tspan x="92.65" y="0" class="st0 st2 st3">NFLUENCE </tspan><tspan x="0" y="307.65" class="st0 st2 st3 st4">GRAPHIQUE</tspan></text>
</svg>
